<?xml version="1.0" encoding="utf-8"?>
<!-- Uploaded to: SVG Repo, www.svgrepo.com, Generator: SVG Repo Mixer Tools -->
<svg width="800px" height="800px" viewBox="-11.19 0 361.964 361.964" xmlns="http://www.w3.org/2000/svg"><defs><style>.a{fill:#ffffff;}.b{fill:#211715;}.c{fill:#bdbdbd;}.d{fill:#7a7473;}.e{fill:#6dbf6b;}</style></defs><path class="a" d="M304.86,271.1c.692-7.583,7.7-12.687,13.153-18,8.359-8.147,9.216-12.306,15.086-23.759a20.561,20.561,0,0,0,3.2-4.087c.616-1.608,1.337-5.872.477-7.364a5.6,5.6,0,0,0-3.357-2.928,9.958,9.958,0,0,0-5.524.583l-2.009,1.043.22-.936c.615-2.626-.048-5.686-2.175-7.344-1.21-.942-4.931-1.751-7.267.273l.615-2.256c.43-1.581,1.153-6.017-.607-8.122-1.525-1.822-4.686-3.256-6.388-2.9a8.439,8.439,0,0,0-2.516.924c4.535-10.253,4.863-11.862,9.231-21.772a13.668,13.668,0,0,0,1.556-5.572,6.8,6.8,0,0,0-9.8-6c-2.747,1.354-4.234,4.329-5.53,7.1-5.076,10.861-6.832,14.009-10.6,24.093a24.721,24.721,0,0,0-3.359,3.892,141.2,141.2,0,0,0-8.567,13.069,33.674,33.674,0,0,0-4.371,10.354c-1.161,6.087.685,12.285,2.047,18.331s2.173,12.718-.8,18.157"/><path class="b" d="M279.645,259.09c2.636-4.995,2.664-10.569,1.813-16.026-.885-5.68-2.95-11.194-3.093-16.979s2.475-10.653,5.364-15.478q2.311-3.862,4.861-7.575a46.392,46.392,0,0,1,5.048-6.619c1.508-1.516,4.137-3.229,6.3-1.937,1.655.99,1.929,3.364,1.584,5.095a2.461,2.461,0,0,0,1.676,2.952,2.422,2.422,0,0,0,2.952-1.676,10.933,10.933,0,0,0-1.02-7.707,7.88,7.88,0,0,0-7.143-3.869c-6.618.285-10.482,6.854-13.806,11.729-3.548,5.2-7.258,10.725-9.342,16.71-2.278,6.539-.958,13.3.573,19.845,1.435,6.13,3.213,13.2.092,19.112-1.441,2.73,2.7,5.159,4.144,2.423Z"/><path class="b" d="M306.464,200.741a7.439,7.439,0,0,1,3.219-2.786,5.448,5.448,0,0,1,1.243-.343c-.3.034.194.043.226.049a6.814,6.814,0,0,1,2.149.843,3.507,3.507,0,0,1,2.058,2.812,12.266,12.266,0,0,1-.322,4.1c0,.023-.094.32-.087.325s.311-.644.144-.348c-.13.229-.23.481-.348.717-.375.756-.767,1.5-1.16,2.251q-1.761,3.34-3.63,6.624c-1.3,2.288-2.633,4.565-4.08,6.766-.3.45-.6.9-.908,1.336-.129.182-.263.361-.393.542-.336.47.231-.243-.2.25a6.321,6.321,0,0,1-2.445,1.81,3.87,3.87,0,0,1-4.143-.447,5.029,5.029,0,0,1-1.466-3.869c-.02-.37-.137.551,0,.028.048-.183.076-.372.12-.556.123-.509.278-1.011.442-1.508.344-1.044.868-2.387,1.206-3.193,1.3-3.1,2.8-6.137,4.4-9.1.677-1.252,1.376-2.494,2.126-3.7.3-.489.614-.974.944-1.446.127-.181.258-.361.391-.538-.434.576.023,0,.134-.126,2.088-2.271-1.3-5.674-3.394-3.394a32.252,32.252,0,0,0-4.21,6.536c-1.655,3.042-3.183,6.161-4.539,9.349-1.058,2.487-2.377,5.233-2.437,7.993-.1,4.731,3.665,9.207,8.535,9.173,7.065-.049,10.406-7.144,13.435-12.4q2.226-3.856,4.3-7.8a17.5,17.5,0,0,0,2.053-4.776,14.584,14.584,0,0,0-.044-6.792,8.746,8.746,0,0,0-4.7-5.107,8.318,8.318,0,0,0-6.97-.577,12.737,12.737,0,0,0-5.794,4.882,2.419,2.419,0,0,0,.861,3.284,2.451,2.451,0,0,0,3.283-.861Z"/><path class="b" d="M318.341,210.292a3.823,3.823,0,0,1,2.95-.5,6.1,6.1,0,0,1,.81.221c.391.134,0-.06.3.143a3.522,3.522,0,0,1,1,1.205c1.456,2.84-.3,6.437-1.816,8.879-1.03,1.664-2.193,3.256-3.294,4.873-1.011,1.486-1.967,3.035-3.123,4.414a13.564,13.564,0,0,1-3.578,3.186c-1.007.575-2.621,1.322-3.7.57a3.613,3.613,0,0,1-1.432-2.742c.044.32-.014-.361-.019-.471q-.014-.39,0-.778c.009-.249.045-.5.053-.745.015-.445-.09.548,0,0a2.472,2.472,0,0,0-1.676-2.953,2.419,2.419,0,0,0-2.952,1.677c-.528,3.134-.155,6.587,2.139,8.982,3.748,3.913,9.375,1.658,12.8-1.478a30.514,30.514,0,0,0,4.425-5.469c1.542-2.264,3.2-4.488,4.613-6.833,2.444-4.042,4.179-9.456,1.528-13.832-2.618-4.321-8.662-4.8-12.429-1.745a2.416,2.416,0,0,0,0,3.394,2.456,2.456,0,0,0,3.394,0Z"/><path class="b" d="M329.114,217.611c-.386.184.363-.11.486-.143a7.413,7.413,0,0,1,1.064-.22,6.941,6.941,0,0,1,2.1.009,2,2,0,0,1,.982.56,4.333,4.333,0,0,1,.6.695c.1.141.18.3.278.439.25.362-.008-.36.06.1.017.117.106.631.067.264a7.917,7.917,0,0,1,.029.924,13.387,13.387,0,0,1-.149,1.8,16.676,16.676,0,0,1-.359,1.686c-.065.239-.161.476-.218.717.09-.382.152-.274-.028.009a14.243,14.243,0,0,1-1.705,2.165c-.907,1.032-1.845,2.035-2.783,3.038-1.816,1.942-3.771,4.583-6.193,5.526a3.639,3.639,0,0,1-1.677.148,6.475,6.475,0,0,1-.823-.233c.079.028.106.038-.056-.057-.213-.126.067.136-.175-.152.121.143-.327-.528-.389-.658a4.969,4.969,0,0,1-.292-.809,6.671,6.671,0,0,1-.157-2.809,2.411,2.411,0,0,0-2.4-2.4,2.462,2.462,0,0,0-2.4,2.4,10.128,10.128,0,0,0,1.395,6.556,6.566,6.566,0,0,0,5.3,2.962c4.269.348,7.447-2.984,10.11-5.845,2.148-2.309,4.737-4.608,6.353-7.344a11.394,11.394,0,0,0,1.215-4.2,11.27,11.27,0,0,0-.13-5.246,7.755,7.755,0,0,0-5.314-4.881,11.816,11.816,0,0,0-7.207.851,2.422,2.422,0,0,0-.861,3.284,2.452,2.452,0,0,0,3.283.861Z"/><path class="b" d="M331.027,228.124c-2.875,5.624-5.263,11.641-8.96,16.8-4.028,5.619-9.871,9.65-14.355,14.906A20.505,20.505,0,0,0,302.46,271.1a2.415,2.415,0,0,0,2.4,2.4,2.454,2.454,0,0,0,2.4-2.4c.711-6.763,7.4-11.461,11.918-15.791a53.358,53.358,0,0,0,10.811-14.291c1.776-3.465,3.41-7,5.182-10.468,1.4-2.746-2.736-5.177-4.144-2.423Z"/><path class="b" d="M310.115,196.821c2.067-4.7,4-9.446,5.968-14.186,1.056-2.545,2.171-5.063,3.263-7.592,1.275-2.956,2.244-6.1,1.017-9.255a9.331,9.331,0,0,0-15.209-3.256c-2.047,1.958-3.229,4.59-4.411,7.112-1.231,2.626-2.48,5.243-3.715,7.867q-3.6,7.656-6.586,15.564a2.42,2.42,0,0,0,1.677,2.952,2.453,2.453,0,0,0,2.952-1.676c1.518-4.035,3.141-8.018,4.944-11.933,2.035-4.42,4-8.929,6.264-13.236.95-1.808,2.156-3.815,4.241-4.423a4.406,4.406,0,0,1,5.149,2.228c1.166,2.3-.088,4.768-1.032,6.92q-1.533,3.492-3,7.011c-1.874,4.5-3.7,9.017-5.668,13.481a2.476,2.476,0,0,0,.861,3.283,2.417,2.417,0,0,0,3.284-.861Z"/><path class="c" d="M210.886,355.534c0-14.259-.133-23.925-.121-33.744,6.365,11,16.029,23.144,25.989,30.385,7.054,5.128,13.262,8.1,21.322,7.238,13.908-1.484,26.272-24.16,34.246-38.848,4.113-7.576,17.047-39.7,19.354-47.543-14.324-2.734-28.936-10.527-40.686-19.585-3.542,7.9-7.54,16.395-12.159,25.8-1.98-4.209-3.419-7.268-4.569-10.147-2.45-5.76-3.61-9.36-5.37-13.9-1.09-2.8-6.42-17.48-7.08-17.96a27.88,27.88,0,0,0-2.37-3.97c-4.5-7.43-11.48-13.11-18.95-17.53-11.427-6.768-32.779-17.285-43.662-24.655-2.831-3.139-5.255-5.318-6.491-5.46a336.142,336.142,0,0,1-8.615,37.122c-7.139,23.962-17.467,53.059-25.237,71.75l-.673-1.62c-6.592-14.233-18.839-42.807-27.775-68.411-5.548-15.894-9.22-31.844-11.3-38.843-1.229.062-3.746,2.325-6.686,5.6-13.022,8.5-35.234,20.981-43.61,25.139-7.12,3.54-13.94,8.33-18.44,15.76a66.055,66.055,0,0,0-5.02,11.26c-11.583,31-16.076,80.718-20.44,116.193,5.864,0,208.33,0,208.33,0,.01-1.36,0-2.7,0-4.03q-.006-2.877-.018-5.676"/><path class="a" d="M170.105,190.457c-.808-.363-3.826-1.544-4.179-1.675-5.421-1.959-5.209-5.452-5.9-9.348a77.252,77.252,0,0,1-1.09-9.4c14.869-6.067,26.878-26.138,28.955-31.777.311-.942.943-2.717,1.506-4.823l1.174-.182a14.741,14.741,0,0,0,6.859-3.092,22.241,22.241,0,0,0,5.753-7.55,35.005,35.005,0,0,0,3.569-18.554,11.68,11.68,0,0,0-1.223-4.7,8.261,8.261,0,0,0-5.94-3.949,8.751,8.751,0,0,0-7,2.048s2-48.03-57.764-48.03c-50,0-59.036,33.4-59.627,44.549a32.33,32.33,0,0,0-.028,3.481,8.751,8.751,0,0,0-7-2.048,8.261,8.261,0,0,0-5.94,3.949,11.68,11.68,0,0,0-1.223,4.7,35.005,35.005,0,0,0,3.569,18.554,22.254,22.254,0,0,0,5.753,7.55,14.741,14.741,0,0,0,6.859,3.092s.845.13,2.235.341A59.524,59.524,0,0,0,90.77,155.735c5.282,6.322,11.2,11.122,17.651,14.047a75.181,75.181,0,0,1-1.1,9.652c-.686,3.9-.474,7.389-5.895,9.348-.354.131-2.605,1.07-3.271,1.352,0,0-1.3,23.279,33.815,23.279S170.105,190.457,170.105,190.457Z"/><path class="b" d="M248.67,304.708c6.886-13.355,13.623-26.79,19.976-40.408q2.243-4.809,4.416-9.651l-3.284.861c12.088,9.283,26.19,16.9,41.26,19.826l-1.676-2.952c-2.29,7.732-5.522,15.256-8.535,22.724-3.19,7.9-6.235,15.778-10.133,23.4-2.406,4.7-5.051,9.323-7.77,13.853A103.643,103.643,0,0,1,272.6,347.11a45.716,45.716,0,0,1-5.884,5.781,21.969,21.969,0,0,1-5.667,3.351,16.783,16.783,0,0,1-7.764.828,23.207,23.207,0,0,1-8.567-2.681c-6.857-3.568-12.728-8.876-17.887-14.567a113.632,113.632,0,0,1-14-19.244c-1.552-2.67-5.7-.257-4.145,2.422,7.333,12.62,16.979,24.7,29.194,32.887,5.77,3.866,12.3,6.533,19.362,6,5.542-.417,10.236-3.188,14.309-6.833a72.871,72.871,0,0,0,11.652-14.15c3.468-5.208,6.558-10.657,9.559-16.143a235.71,235.71,0,0,0,10.762-23.651c3.487-8.48,7.012-17,9.908-25.708.193-.579.38-1.159.553-1.744a2.419,2.419,0,0,0-1.677-2.952C297.6,267.85,284,260.425,272.2,251.365a2.4,2.4,0,0,0-3.284.861c-5.672,12.647-11.735,25.115-17.977,37.489q-3.177,6.3-6.415,12.57c-1.413,2.741,2.727,5.172,4.145,2.423Z"/><path class="d" d="M117.884,3.062C104.8,4.554,91.341,9.262,80.43,20.243L85.652,24.7c-8.9,5.5-15.891,16.155-19.1,25.587-3.779,11.1-4.907,26.889-.421,45.547l.033.137a8.2,8.2,0,0,1,2.011-.568,8.751,8.751,0,0,1,7,2.048l7.5-4.468.617-.368C99.156,77.771,108,71.625,122.219,60.455c.086.99,3.257,8.915,4,9.217.914.372,10.079-5.294,17.538-9.9L156.344,61.3c5.783,1.265,11.21,4.407,16.1,8.611,8.662,7.454,15.628,18.247,19.875,27.849a8.566,8.566,0,0,1,7.277-2.356,8.236,8.236,0,0,1,1.525.379c4.35-11.175,4.987-27.364-.506-42.723-3.862-10.8-13.071-22.091-20.332-25.268l-8.571-6.109C163.3,10.159,149.275,3.094,131.327,2.545A93.614,93.614,0,0,0,117.884,3.062Z"/><path class="b" d="M194.29,99.149a6.26,6.26,0,0,1,8.793.814c1.144,1.509,1.276,3.6,1.362,5.416a31.6,31.6,0,0,1-.349,6.648c-1.3,7.825-5.436,17.417-14.159,18.907a2.419,2.419,0,0,0-1.676,2.952,2.455,2.455,0,0,0,2.952,1.676c8.8-1.5,14.009-9.8,16.442-17.716a36.824,36.824,0,0,0,1.566-12.91c-.252-4.221-1.441-8.154-5.25-10.461a11.238,11.238,0,0,0-13.076,1.28,2.421,2.421,0,0,0,0,3.394,2.45,2.45,0,0,0,3.395,0Z"/><path class="b" d="M188.085,126.734a30.114,30.114,0,0,1-1.477,7.732c-.261.859-.544,1.71-.83,2.561-.091.271-.187.539-.28.809-.028.079-.065.155-.093.234-.159.438.216-.482.027-.065a59.951,59.951,0,0,1-3.908,7.144,69.8,69.8,0,0,1-15.632,18,29.771,29.771,0,0,1-11.562,5.84c-3.01.689-1.736,5.318,1.276,4.628,8.673-1.988,15.937-8.232,21.667-14.763a75.392,75.392,0,0,0,12.119-18.011,37.917,37.917,0,0,0,3.493-14.107c.1-3.089-4.7-3.086-4.8,0Z"/><path class="b" d="M76.87,95.755a11.211,11.211,0,0,0-11.508-2.037c-4.138,1.689-6.147,5.234-6.667,9.528a35.811,35.811,0,0,0,6.138,24.465c2.853,3.935,6.838,7.018,11.719,7.851a2.47,2.47,0,0,0,2.952-1.676,2.419,2.419,0,0,0-1.676-2.952c-8.723-1.49-12.856-11.082-14.159-18.907a31.489,31.489,0,0,1-.358-6.427c.075-1.836.18-3.931,1.272-5.489a6.233,6.233,0,0,1,8.893-.962,2.462,2.462,0,0,0,3.394,0,2.421,2.421,0,0,0,0-3.394Z"/><path class="b" d="M75.228,125.832A70.148,70.148,0,0,0,84.2,150.677c5.082,8.264,12.425,15.728,21.074,20.238a40.6,40.6,0,0,0,14.693,4.405,2.416,2.416,0,0,0,2.4-2.4,2.454,2.454,0,0,0-2.4-2.4C102.3,168.7,88.555,152.887,83.007,136.976a78.238,78.238,0,0,1-3.151-12.42A2.419,2.419,0,0,0,76.9,122.88a2.454,2.454,0,0,0-1.676,2.952Z"/><path class="b" d="M179.069,29.865a27.958,27.958,0,0,1,8.9,7.008,54.355,54.355,0,0,1,7.974,11.511c4.644,8.919,6.483,19.458,6.179,29.451a54.343,54.343,0,0,1-2.551,15.158c-.956,2.945,3.677,4.206,4.629,1.276,3.225-9.934,3.43-20.761,1.606-30.986A59.724,59.724,0,0,0,192.656,34.95c-3.07-3.635-6.768-7.257-11.164-9.23a2.475,2.475,0,0,0-3.284.861,2.42,2.42,0,0,0,.861,3.284Z"/><path class="b" d="M89.9,19.985C79.44,23.9,71.678,33.346,66.921,43.159c-4.651,9.591-6.3,20.315-6.092,30.91a105.752,105.752,0,0,0,2.985,22.4c.716,3,5.345,1.732,4.629-1.276-4.859-20.395-4.5-43.765,9.621-60.567,3.541-4.212,7.89-8.063,13.109-10.016a2.466,2.466,0,0,0,1.676-2.952A2.419,2.419,0,0,0,89.9,19.985Z"/><path class="b" d="M173.781,20.472C165.8,9.635,153.66,3.107,140.474,1.018c-13.412-2.125-28.13-.98-40.823,3.965A60.55,60.55,0,0,0,78.733,18.546c-2.188,2.186,1.2,5.581,3.394,3.394,9.478-9.469,22.021-14.823,35.236-16.416,12.542-1.513,26.034-.8,37.467,5.017A41.853,41.853,0,0,1,169.636,22.9a2.473,2.473,0,0,0,3.284.861,2.418,2.418,0,0,0,.861-3.284Z"/><path class="b" d="M146.322,55.366c-5.007,3.073-9.971,6.219-15.048,9.177-1.014.59-2.032,1.174-3.066,1.729-.405.218-.813.432-1.225.635-.161.079-.322.155-.483.231-.294.14-.489.168-.042.026a1.524,1.524,0,0,0-.379.134c-.146.18-.418-.159.033.024a8.108,8.108,0,0,1,1.679.556c.127.1.3.492.042.018-.436-.805-.842-1.617-1.215-2.455-.439-.987-.842-1.975-1.29-3.164-.174-.464-.346-.928-.5-1.4-.1-.294-.347-1.5-.208-.424a2.44,2.44,0,0,0-4.1-1.7c-10,7.848-20.177,15.447-29.742,23.827q-4.981,4.365-9.8,8.91C78.721,93.613,82.12,97,84.372,94.889c9.787-9.18,20.087-17.663,30.7-25.863q4.433-3.425,8.846-6.874l-4.1-1.7A25.042,25.042,0,0,0,122,66.78c.762,1.794,1.681,4.923,3.934,5.261,1.773.266,3.744-1.1,5.224-1.914,2.7-1.483,5.336-3.088,7.965-4.693,3.214-1.961,6.409-3.954,9.618-5.923,2.628-1.613.22-5.766-2.423-4.145Z"/><path class="b" d="M155.706,63.614c8.3,1.88,15.156,7.381,20.724,13.6a83.423,83.423,0,0,1,13.382,20.8,2.418,2.418,0,0,0,3.283.861,2.455,2.455,0,0,0,.861-3.283,87.156,87.156,0,0,0-14.417-22.083c-6.035-6.66-13.643-12.5-22.557-14.52-3.008-.682-4.292,3.945-1.276,4.628Z"/><path class="b" d="M99.369,192.207c-.688.291-.132.055.026-.01l.717-.3q.626-.261,1.253-.519a28.521,28.521,0,0,0,2.937-1.261,9.312,9.312,0,0,0,4.281-4.925,26.556,26.556,0,0,0,1.055-5.12,88.043,88.043,0,0,0,1.146-9.562,2.4,2.4,0,0,0-4.8,0,76.126,76.126,0,0,1-.974,8.286,36.572,36.572,0,0,1-.916,4.739c-.065.209-.152.4-.014.088-.082.186-.173.369-.271.546s-.213.351-.326.525c-.234.363.1-.091-.085.1a5.67,5.67,0,0,1-2.027,1.438c-1.437.67-2.96,1.211-4.424,1.831a2.414,2.414,0,0,0-.861,3.284,2.464,2.464,0,0,0,3.283.861Z"/><path class="b" d="M156.611,171.206c.23,3.2.713,6.356,1.214,9.523a18.188,18.188,0,0,0,1.477,5.676,10.1,10.1,0,0,0,5.54,4.521c.684.27,1.373.528,2.057.8q.669.264,1.337.533l.554.227c.5.2-.466-.207.1.045a2.476,2.476,0,0,0,3.283-.861,2.417,2.417,0,0,0-.861-3.284c-1.488-.659-3.011-1.25-4.531-1.833a9.271,9.271,0,0,1-2.159-1.108c.317.23-.181-.157-.24-.212-.161-.149-.305-.311-.457-.468-.371-.383.109.241-.128-.174-.116-.2-.237-.406-.354-.608-.047-.088-.09-.177-.131-.268q.144.358.05.115c-.069-.187-.135-.375-.193-.566-.119-.388-.212-.783-.293-1.181-.17-.834-.278-1.679-.41-2.52-.436-2.784-.857-5.542-1.059-8.356a2.459,2.459,0,0,0-2.4-2.4,2.419,2.419,0,0,0-2.4,2.4Z"/><path class="a" d="M139.579,192.6l-.19.087c-.475.215-1,.478-1.157.976a1.2,1.2,0,0,0,.017.686c-2.932.007-6.045.012-8.7.016a1.21,1.21,0,0,0,.021-.7c-.153-.5-.682-.761-1.157-.976a79.45,79.45,0,0,1-22.927-15.979,39.461,39.461,0,0,0-8.138,11.081c2.166,7.783,5.656,22.251,10.69,36.674,8.936,25.6,21.183,54.178,27.775,68.411l.712,1.539c7.764-18.7,18.07-47.744,25.2-71.669a337.287,337.287,0,0,0,8.365-35.656,38.885,38.885,0,0,0-7.772-10.38A79.506,79.506,0,0,1,139.579,192.6Z"/><path class="e" d="M138.294,290.084c3.54-8.8,7.487-19.358,11.362-30.384-2.892-19.557-6.917-45.9-6.9-47.06a18.535,18.535,0,0,1,1.2-5.45c.457-1.4.808-2.663,1.116-3.885-3.252-3.947-6.206-7.586-6.575-8.35a4.7,4.7,0,0,1-.246-.607c-2.936,0-6.047.009-8.7.018l-4.773,6.012c.027.123.044.246.071.369.466,2.364.914,4.729,1.468,7.093.1.457.219.923.334,1.389a12.241,12.241,0,0,1,.5,3.068c-.009.764-3.27,27.415-5.7,47.324,5.5,13.474,10.776,25.49,14.371,33.251l.826,1.275Q137.45,292.186,138.294,290.084Z"/><path class="b" d="M175.611,193.146c14.327,9.669,30.389,16.422,45.064,25.5a58.115,58.115,0,0,1,11.49,9.1,38.976,38.976,0,0,1,4.556,5.69c.671,1.032,1.332,2.071,2,3.107a13.3,13.3,0,0,1,.78,1.323c.108.222.322.9.617,1.059.172.09-.276-.6-.266-.349.008.212.317.608.409.808.084.184.163.37.245.555.229.512-.147-.356,0,0,.075.182.151.363.225.545.572,1.394,1.116,2.8,1.655,4.206,1.136,2.96,2.238,5.932,3.348,8.9,3.4,9.09,6.9,18.073,11.028,26.861a2.419,2.419,0,0,0,3.283.861,2.453,2.453,0,0,0,.861-3.284c-1.794-3.814-3.546-7.635-5.147-11.536-1.521-3.708-2.846-7.488-4.278-11.231-1.773-4.635-3.459-9.3-5.271-13.926-.5-1.279-1.013-2.556-1.56-3.817a5.568,5.568,0,0,0-1.139-1.985l.617,1.059a37.561,37.561,0,0,0-4.9-7.9,48.805,48.805,0,0,0-5.85-6.475,75.1,75.1,0,0,0-13.686-9.73c-9.092-5.224-18.445-9.982-27.607-15.081-4.767-2.654-9.53-5.355-14.055-8.409-2.567-1.732-4.972,2.424-2.422,4.145Z"/><path class="b" d="M213.272,359.564c.085-14.679-.186-29.357-.069-44.036.022-2.87-.043-5.768.128-8.634.026-.433.066-.865.111-1.3.029-.268.061-.536.093-.8a2.056,2.056,0,0,1,.05-.382c.454-3.044,1.023-6.067,1.638-9.083,3.489-17.08,7.9-33.971,12.02-50.906,1.548-6.36,3.307-12.751,4.353-19.22a2.473,2.473,0,0,0-1.676-2.952,2.418,2.418,0,0,0-2.952,1.676c-.9,5.561-2.377,11.056-3.7,16.526-2.081,8.6-4.219,17.194-6.3,25.8-2.055,8.485-4.092,16.979-5.9,25.522-1.265,5.991-2.515,11.987-2.6,18.125-.239,16.557.1,33.112.007,49.668-.018,3.089,4.782,3.093,4.8,0Z"/><path class="b" d="M59.262,359.564c.008-10.082.129-20.162.194-30.243.03-4.575.046-9.15.02-13.725a93.775,93.775,0,0,0-.3-10.578c-1.029-8.595-3.14-17.094-5.1-25.513-2.3-9.882-4.729-19.733-7.149-29.586-1.3-5.308-2.611-10.616-3.861-15.937-.783-3.333-1.606-6.676-2.162-10.056a2.417,2.417,0,0,0-2.952-1.676,2.456,2.456,0,0,0-1.676,2.952c1.217,7.4,3.257,14.7,5.038,21.979,2.418,9.88,4.867,19.754,7.208,29.653,2.077,8.785,4.237,17.612,5.619,26.54a70.016,70.016,0,0,1,.511,9.4c.043,4.451.041,8.9.02,13.355-.052,11.144-.2,22.289-.212,33.434,0,3.088,4.8,3.093,4.8,0Z"/><path class="b" d="M88.861,189.131l-.02.01a2.378,2.378,0,0,0-1.189,2.073v.01l2.4-2.4a2.392,2.392,0,0,0-1.231.327c-1.678.982.547-.223-.691.453-.671.366-1.3.839-1.95,1.249q-2.283,1.45-4.589,2.863-4.645,2.851-9.348,5.606-9.31,5.481-18.81,10.642c-4.744,2.581-9.741,4.815-14.278,7.751A41.647,41.647,0,0,0,25.93,230.9c-3.45,5.7-5.618,12.346-7.6,18.676-1.971,6.291-3.575,12.7-5,19.131C10.2,282.9,7.943,297.274,5.946,311.663,3.734,327.6,1.918,343.588.012,359.564a2.413,2.413,0,0,0,2.4,2.4,2.458,2.458,0,0,0,2.4-2.4c3.341-28.006,6.3-56.138,11.926-83.8,2.559-12.583,5.589-25.3,10.658-37.144a36.023,36.023,0,0,1,11.156-14.637c4.188-3.232,8.978-5.427,13.624-7.893,6.724-3.57,13.348-7.326,19.939-11.134q5.076-2.934,10.082-5.984,2.566-1.558,5.112-3.154a25.165,25.165,0,0,0,4.42-2.9l-1.7.7h.02a2.435,2.435,0,0,0,2.4-2.4v-.01l-1.189,2.072.02-.01c2.763-1.382.335-5.523-2.422-4.145Z"/><path class="b" d="M127.305,214.58c5.151,0,10.3-.114,15.453-.116a2.4,2.4,0,0,0,0-4.8c-5.151,0-10.3.114-15.453.116a2.4,2.4,0,0,0,0,4.8Z"/><path class="b" d="M123.994,208.478a13.857,13.857,0,0,1,.724,4.186c-.042.548-.119,1.1-.181,1.642-.249,2.176-.51,4.351-.77,6.526q-1.26,10.518-2.55,21.031-1.412,11.568-2.829,23.134-.562,4.6-1.123,9.192-.207,1.689-.411,3.379c-.166,1.361-.364,2.371.511,3.587,2.721,3.779,5.447,7.555,8.268,11.26s5.66,7.659,9.116,10.83a2.45,2.45,0,0,0,3.4,0c3.313-3.234,6-7.213,8.668-10.974q2.358-3.324,4.619-6.717.9-1.353,1.791-2.716c.615-.947,1.653-2.122,1.658-3.286a46.172,46.172,0,0,0-.857-6.423q-.684-4.848-1.4-9.691c-2.229-15.152-4.573-30.287-6.754-45.445q-.257-1.776-.5-3.554c-.1-.746.058.459-.01-.075-.026-.2-.053-.4-.078-.6-.033-.264-.074-.53-.094-.8-.175-2.35,1-4.7,1.635-6.92,1.059-3.67,1.714-7.436,2.888-11.075a2.422,2.422,0,0,0-2.315-3.038c-7.977,0-15.955.037-23.933.038a2.427,2.427,0,0,0-2.314,3.038c1.111,4.454,1.82,8.994,2.851,13.467.694,3.008,5.323,1.735,4.629-1.277-1.032-4.472-1.74-9.012-2.851-13.466l-2.315,3.038c7.978,0,15.956-.037,23.933-.038l-2.314-3.038c-.827,2.565-1.415,5.182-2.039,7.8-.657,2.761-1.713,5.428-2.308,8.2a12.974,12.974,0,0,0-.163,4.764c.58,4.385,1.242,8.76,1.891,13.135,1.915,12.916,3.878,25.825,5.773,38.744q.615,4.2,1.212,8.4.121.867.241,1.733c.033.237.065.474.1.711.09.656-.062-.472.02.149.1.739.194,1.477.279,2.216l.328-1.211c-2.47,3.907-5.067,7.738-7.74,11.507a71.426,71.426,0,0,1-7.919,10h3.4c-3.4-3.121-6.2-6.987-8.972-10.656-2.745-3.633-5.4-7.33-8.066-11.022l.328,1.211q1.694-14.081,3.439-28.156,2.01-16.44,3.991-32.884c.189-1.591.379-3.183.556-4.775a18.408,18.408,0,0,0-.8-6.368C127.912,204.2,123.282,205.469,123.994,208.478Z"/><path class="a" d="M115.12,212.532c-7.363-7.316-12.185-16.179-17.624-25.032a39.232,39.232,0,0,1,7.991-10.795,79.45,79.45,0,0,0,22.927,15.979c.475.215,1,.478,1.157.976a1.835,1.835,0,0,1-.265,1.3C128.62,196.377,118.94,207.828,115.12,212.532Z"/><path class="a" d="M152.683,212.532c7.363-7.316,12.185-16.179,17.624-25.032a39.248,39.248,0,0,0-7.99-10.795,79.468,79.468,0,0,1-22.928,15.979c-.475.215-1,.478-1.157.976a1.835,1.835,0,0,0,.265,1.3C139.183,196.377,148.863,207.828,152.683,212.532Z"/><path class="b" d="M116.817,210.835c-7.134-7.145-12.012-16.009-17.248-24.546v2.423a37.936,37.936,0,0,1,7.615-10.31h-3.395a81.308,81.308,0,0,0,11.77,9.745q3.039,2.082,6.258,3.883,1.562.871,3.162,1.669.738.366,1.484.716.441.207.884.409a2.459,2.459,0,0,1,.284.147q.35.2-.132-.1l-.328-1.211c.025.317-.31.674-.521.965-.18.247-.366.49-.551.734.334-.439-.355.453-.459.584-1.3,1.641-2.621,3.258-3.949,4.873-2.75,3.345-5.536,6.659-8.268,10.019a2.471,2.471,0,0,0,0,3.394,2.417,2.417,0,0,0,3.394,0c3.977-4.891,8.082-9.679,12-14.618,1.56-1.966,4.325-4.728,2.693-7.434a5.448,5.448,0,0,0-2.624-1.906q-1.5-.7-2.972-1.478-3.231-1.7-6.294-3.7a75.515,75.515,0,0,1-12.436-10.09,2.447,2.447,0,0,0-3.395,0,40.424,40.424,0,0,0-7.355,9.434,8.325,8.325,0,0,0-1.3,2.74c-.157,1.166.639,2.106,1.212,3.048,1.032,1.7,2.053,3.4,3.086,5.1,4.08,6.708,8.414,13.319,13.986,18.9C115.608,216.418,119,213.025,116.817,210.835Z"/><path class="b" d="M154.38,214.229c5.572-5.581,9.906-12.192,13.986-18.9,1.033-1.7,2.054-3.4,3.086-5.1a5.706,5.706,0,0,0,1.255-2.729c0-1.054-.822-2.164-1.337-3.059a40.481,40.481,0,0,0-7.356-9.434,2.443,2.443,0,0,0-3.394,0,74.708,74.708,0,0,1-10.98,9.12q-2.953,2.01-6.077,3.758c-1.929,1.077-4.08,1.867-5.954,3.02-3.605,2.217-.966,5.715.818,8,1.923,2.46,3.92,4.863,5.908,7.27,2.219,2.685,4.454,5.355,6.651,8.057a2.415,2.415,0,0,0,3.394,0,2.455,2.455,0,0,0,0-3.394c-2.731-3.36-5.518-6.674-8.268-10.019-1.3-1.586-2.6-3.173-3.878-4.783q-.207-.262-.413-.526c-.04-.051-.466-.607-.117-.148-.17-.224-.341-.448-.507-.675-.221-.3-.591-.692-.565-1.024l-.328,1.211c-.112.23-.429.2.008.021.285-.118.563-.261.843-.391q.745-.346,1.483-.71,1.6-.79,3.162-1.657,3.315-1.838,6.444-3.987a81.308,81.308,0,0,0,11.77-9.745H160.62a37.938,37.938,0,0,1,7.614,10.31v-2.423c-5.236,8.537-10.114,17.4-17.248,24.546C148.8,213.024,152.194,216.419,154.38,214.229Z"/><path class="c" d="M135.814,292.871c-6.592-14.233-18.839-42.807-27.775-68.411-5.549-15.9-9.221-31.85-11.305-38.847-3.818.184-20.16,21.766-22.815,28.66-.175.453,7.816,7.664,11.433,10.908-1.935,1.737-8.58,9.531-8.7,10.318-.092.616,42.68,53.013,54.924,68.587Z"/><path class="c" d="M128.367,318.142a68.788,68.788,0,0,1,2.521-11.116c7.587-15.213,21.777-53.881,30.836-84.285a335.972,335.972,0,0,0,8.616-37.131c3.943.445,20.106,21.811,22.745,28.663.174.453-7.817,7.664-11.434,10.908,1.933,1.733,8.581,9.531,8.7,10.318.093.616-31.747,50.142-48.663,75.627Z"/><path class="b" d="M133.274,302.389c-9.2-11.7-18.627-23.238-27.983-34.82q-7.764-9.612-15.513-19.235-2.993-3.721-5.97-7.454-1.124-1.411-2.242-2.827-.462-.587-.923-1.175l-.373-.477c-.134-.173-.717-.934-.158-.2-.378-.5-.746-1-1.125-1.495-.058-.076-.153-.307-.233-.348-.007,0-.012-.036-.019-.036a2.344,2.344,0,0,1,.243,1.772q-.322.711-.151.381c.14-.082.328-.509.418-.637s.708-.94.443-.6c.354-.455.717-.9,1.082-1.348q1.075-1.312,2.188-2.594a51.193,51.193,0,0,1,4.091-4.418,2.418,2.418,0,0,0,0-3.394c-3.13-2.809-6.272-5.612-9.29-8.542-.5-.488-1.007-.977-1.484-1.492-.15-.162-.286-.355-.447-.506.444.415.3.425.19.223q-.036,2.409.292,1.55c.068-.167.035-.088-.1.234a13.869,13.869,0,0,0,.8-1.629c.36-.681.742-1.35,1.135-2.012a116.329,116.329,0,0,1,13.828-18.641,42.505,42.505,0,0,1,3.652-3.663c.158-.137.985-.77.4-.347.206-.149.409-.3.625-.435.2-.123.407-.216.6-.335.251-.151-.62.244-.262.119.233-.081.645-.065-.251.009l-2.314-1.762c1.8,6.072,3.276,12.238,4.971,18.339q3.521,12.674,7.939,25.05c5.509,15.347,11.6,30.486,18.012,45.479,2.716,6.356,5.493,12.687,8.4,18.96a2.421,2.421,0,0,0,3.284.861,2.456,2.456,0,0,0,.861-3.284c-5.684-12.284-10.959-24.764-16.006-37.322-6.339-15.773-12.364-31.694-17.022-48.053-2.016-7.079-3.717-14.249-5.806-21.306a2.431,2.431,0,0,0-2.314-1.762c-2.813.233-5.108,2.827-6.938,4.74a112.661,112.661,0,0,0-8.33,10.016,121.93,121.93,0,0,0-7.178,10.42,37.53,37.53,0,0,0-2.163,3.994c-.472,1.047-.9,2.048-.276,3.158A7.575,7.575,0,0,0,73,216.967c3.319,3.518,7.06,6.683,10.658,9.911v-3.394a69.033,69.033,0,0,0-7.872,9.019c-.942,1.227-2.071,2.619-1.2,4.229a6.222,6.222,0,0,0,.485.71c2.782,3.781,5.793,7.406,8.728,11.067,10.592,13.214,21.269,26.36,31.9,39.546,4.748,5.893,9.507,11.779,14.185,17.728a2.413,2.413,0,0,0,3.394,0,2.46,2.46,0,0,0,0-3.394Z"/><path class="b" d="M133.58,351.435c-.575-10.129-2.252-20.17-2.8-30.3a21.045,21.045,0,0,1,.326-5.173,36.949,36.949,0,0,1,2.51-9.069c1.924-4,3.662-8.08,5.358-12.176a735.325,735.325,0,0,0,24.952-70.971,324.09,324.09,0,0,0,8.725-37.49l-2.952,1.676c.114.017.686.163.207.018-.459-.139.114.063.246.146.205.128.4.263.6.4.484.319-.247-.239.316.249a42.052,42.052,0,0,1,3.183,3.08,108.364,108.364,0,0,1,7.229,8.7c2.405,3.184,4.72,6.45,6.81,9.85.767,1.247,1.511,2.515,2.151,3.832a4.261,4.261,0,0,0,.343.742l-.125-.3q.2.584.187-.675c.045-.276.243-1.126.061-.693.258-.615.185-.237-.078.054-.246.271-.505.532-.763.791-3.235,3.256-6.7,6.294-10.119,9.358a2.419,2.419,0,0,0,0,3.394,66.669,66.669,0,0,1,6.609,7.416c.253.312.505.626.752.943-.276-.354.28.374.346.465.14.194.262.408.409.594.031.039.07.157.107.178q.171.33-.152-.381l.01-1.217c-.008.041.393-.729.126-.326-.1.153-.181.326-.273.486-2.059,3.573-4.339,7.03-6.547,10.512q-13.208,20.824-26.7,41.466-7.47,11.478-15.026,22.9c-1.713,2.581,2.443,4.987,4.145,2.423q14.451-21.776,28.548-43.782,6.368-9.88,12.678-19.8c2.353-3.706,4.767-7.389,6.978-11.182a6.337,6.337,0,0,0,.695-1.408c.418-1.522-.773-2.807-1.626-3.911a68.4,68.4,0,0,0-7.684-8.775v3.394c3.308-2.968,6.648-5.919,9.807-9.046,1.126-1.115,2.688-2.419,2.244-4.2a17.264,17.264,0,0,0-1.96-4.009A118.932,118.932,0,0,0,178.4,189.239a39.871,39.871,0,0,0-3.864-3.837,8.066,8.066,0,0,0-3.557-2.1c-1.182-.172-2.71.276-2.952,1.676-4.187,24.218-11.489,47.623-19.537,70.8-4.047,11.655-8.289,23.252-12.923,34.687-1.69,4.171-3.394,8.233-5.3,12.335q-.526,1.133-1.074,2.256a26.9,26.9,0,0,0-1.638,5,38.149,38.149,0,0,0-1.628,8.938c-.082,4.76.683,9.6,1.179,14.324.634,6.029,1.335,12.063,1.679,18.117.174,3.071,4.975,3.091,4.8,0Z"/><path class="b" d="M142.2,328.206c0-.262.02-.521.039-.783.037-.493-.116.6-.014.12.028-.127.049-.256.079-.383.06-.255.144-.5.225-.748.151-.46-.265.522-.039.094.081-.153.156-.309.245-.458.068-.112.143-.218.214-.328.263-.4-.388.418-.049.074a5.046,5.046,0,0,0,.58-.559c-.254.378-.307.224-.037.05.08-.052.162-.1.244-.148a1.987,1.987,0,0,0,.391-.2q-.516.21-.152.068c.1-.036.2-.07.3-.1a2.932,2.932,0,0,1,.98-.223c-.6-.059-.09.019.088.008.194-.012.39-.021.584-.018s.37.024.555.035c.6.037-.509-.128.054.014.088.022,1.085.307,1.085.308-.035.05-.519-.252-.024,0,.129.067.256.139.379.217.254.16.259.345-.023-.047a1.625,1.625,0,0,0,.213.18c.2.177.361.445.568.6-.4-.3-.214-.288-.054-.042a5.5,5.5,0,0,1,.276.476c.112.215.114.507-.009-.069.028.13.1.267.145.395a7.136,7.136,0,0,1,.222.826,3.029,3.029,0,0,0,.076.429c-.2-.537-.04-.322-.019-.053a8.061,8.061,0,0,1,.026.958c0,.089-.012.179-.017.268-.013.288-.158.2.041-.254a5.06,5.06,0,0,0-.139.674,4.221,4.221,0,0,0-.222.678c-.063-.087.27-.584.045-.127q-.109.224-.237.437c-.065.108-.138.211-.206.317-.254.4.387-.432.063-.079-.179.195-.363.378-.552.563-.35.342.474-.309.058-.037-.117.076-.231.157-.352.23-.082.049-.165.1-.25.141-.588.311.3-.07-.107.063a8.981,8.981,0,0,1-.926.266c-.19.04-.583.239-.046.023a1.938,1.938,0,0,1-.55.042c-.214.01-.936.115-1.1-.026l.3.044q-.163-.024-.324-.057a5.755,5.755,0,0,1-.607-.158l-.143-.049q-.363-.138.164.078c-.091-.107-.375-.187-.5-.263a2.114,2.114,0,0,0-.343-.226q.458.364.17.127l-.1-.087c-.1-.088-.191-.18-.281-.276-.06-.063-.118-.127-.174-.193q-.235-.288.136.182c-.126-.261-.333-.5-.469-.758-.057-.11-.1-.235-.163-.341.369.614.09.213.014-.009a7.669,7.669,0,0,1-.228-.827c-.025-.117-.041-.237-.068-.353-.1-.41.053.683.009.061-.019-.257-.036-.511-.038-.769a2.4,2.4,0,0,0-4.8,0c.021,3.046,1.377,6.345,4.219,7.783,3.316,1.678,8.034,1.108,10.492-1.83a9.069,9.069,0,0,0,1.465-8.959,7.992,7.992,0,0,0-3.351-4.171,9.33,9.33,0,0,0-6.12-1,7.778,7.778,0,0,0-5.223,3.166,8.665,8.665,0,0,0-1.482,5.014,2.4,2.4,0,0,0,4.8,0Z"/><path class="b" d="M123.8,144.227a22.9,22.9,0,0,0,11.03,2.543c3.9-.025,7.9-.768,11.025-3.206a2.415,2.415,0,0,0,0-3.395,2.463,2.463,0,0,0-3.4,0c.7-.54.04-.046-.138.068q-.341.218-.7.405c-.141.074-.924.42-.384.2q-.476.192-.964.35a17.6,17.6,0,0,1-5.808.776,18.357,18.357,0,0,1-5.545-.747c-.353-.105-.7-.231-1.045-.351-.114-.039-.224-.089-.337-.131.589.218.075.033-.037-.019-.433-.2-.858-.416-1.281-.639a2.451,2.451,0,0,0-3.283.861,2.426,2.426,0,0,0,.861,3.283Z"/><path class="b" d="M133.856,117.926a52.874,52.874,0,0,1,1.248,5.71l-.086-.638a3.407,3.407,0,0,1,.022.788l.086-.638a1.978,1.978,0,0,1-.087.355l.242-.574a1.481,1.481,0,0,1-.125.228l.375-.486a1.122,1.122,0,0,1-.187.184l.486-.375a3.482,3.482,0,0,1-.452.239l.573-.242a3.33,3.33,0,0,1-.762.223l.638-.086a3,3,0,0,1-.715,0l.638.086c-.27-.038-.535-.1-.805-.14a2.655,2.655,0,0,0-1.849.242,2.4,2.4,0,0,0-.861,3.284,2.3,2.3,0,0,0,1.434,1.1c.567.076,1.118.222,1.694.247a5.322,5.322,0,0,0,2.438-.571,3.4,3.4,0,0,0,1.92-2.257,5.89,5.89,0,0,0-.027-2.49c-.311-1.839-.736-3.663-1.209-5.467a2.4,2.4,0,0,0-4.629,1.276Z"/><path class="b" d="M103.157,101.9c-.954,3.1-.332,10.226,5.538,10.833,7.759-.047,8.172-8.664,5.56-12.716C112.116,96.7,105.828,95.316,103.157,101.9Z"/><path class="b" d="M165.289,101.9c.953,3.1.332,10.226-5.538,10.833-7.759-.047-8.172-8.665-5.561-12.717C156.329,96.7,162.617,95.316,165.289,101.9Z"/></svg>